<?xml version="1.0" standalone="no"?>
<!DOCTYPE svg PUBLIC "-//W3C//DTD SVG 20010904//EN"
 "http://www.w3.org/TR/2001/REC-SVG-20010904/DTD/svg10.dtd">
<svg version="1.0" xmlns="http://www.w3.org/2000/svg"
 width="3188.000000pt" height="1029.000000pt" viewBox="0 0 3188.000000 1029.000000"
 preserveAspectRatio="xMidYMid meet">

<g transform="translate(0.000000,1029.000000) scale(0.100000,-0.100000)"
fill="#000000" stroke="none">
<path d="M6415 8186 c-2104 -902 -2717 -1169 -2743 -1193 -26 -25 -32 -39 -32
-72 0 -70 24 -85 360 -236 751 -338 1296 -587 1307 -598 6 -7 161 -448 343
-982 254 -743 338 -976 358 -997 21 -22 35 -28 70 -28 36 0 49 6 76 32 32 33
32 35 170 743 77 391 140 711 140 712 1 1 258 -114 572 -256 1176 -533 1290
-584 1320 -591 36 -8 80 7 107 37 13 15 108 530 413 2253 229 1296 393 2244
389 2258 -3 14 -19 37 -35 53 -22 22 -37 29 -67 28 -27 0 -798 -326 -2748
-1163z m2055 640 c0 -3 -120 -103 -267 -224 -148 -120 -556 -454 -908 -742
-746 -611 -810 -663 -1175 -960 -151 -124 -373 -306 -494 -405 -120 -99 -223
-184 -230 -188 -14 -11 -1370 603 -1359 614 4 4 886 385 1958 845 1073 460
2067 887 2210 949 143 62 261 114 263 114 1 1 2 -1 2 -3z m163 -1925 c-186
-1051 -342 -1911 -347 -1911 -14 0 -1706 766 -1718 778 -4 4 237 316 535 693
298 377 839 1062 1202 1522 363 460 661 834 663 832 2 -2 -149 -863 -335
-1914z m-210 1587 c-24 -31 -859 -1089 -1461 -1851 -364 -461 -668 -850 -675
-865 -7 -15 -63 -280 -123 -589 -60 -309 -112 -559 -115 -555 -7 9 -520 1505
-516 1507 6 6 2715 2220 2797 2287 95 78 111 89 93 66z"/>
<path d="M22650 6910 c-119 -8 -282 -45 -397 -90 -258 -99 -461 -319 -518
-563 -22 -92 -20 -276 4 -369 65 -252 250 -423 586 -538 66 -22 210 -63 320
-90 260 -64 423 -112 499 -148 88 -42 162 -105 193 -166 55 -106 26 -257 -65
-337 -115 -101 -384 -153 -602 -115 -257 44 -420 198 -452 424 l-11 82 -291
-2 -291 -3 3 -93 c10 -279 149 -523 387 -678 150 -97 272 -148 448 -186 88
-19 133 -22 332 -23 201 0 244 3 343 23 143 29 310 87 410 144 112 63 255 207
309 313 157 305 128 670 -70 882 -158 169 -344 252 -847 378 -450 113 -577
168 -615 270 -22 57 -17 174 10 229 41 85 152 156 280 177 149 25 365 -6 471
-67 96 -55 166 -168 180 -289 l7 -55 293 0 294 0 0 59 c0 123 -47 290 -111
396 -181 299 -610 469 -1099 435z"/>
<path d="M13130 6903 c-129 -21 -300 -73 -395 -121 -187 -94 -348 -270 -410
-449 -52 -149 -54 -355 -5 -497 93 -272 355 -449 832 -562 464 -109 597 -158
700 -259 56 -55 78 -106 78 -186 0 -167 -93 -263 -308 -320 -113 -30 -347 -31
-454 -1 -108 29 -173 65 -246 135 -80 77 -119 156 -135 272 l-11 85 -295 0
-294 0 6 -97 c21 -341 197 -595 522 -753 224 -109 417 -146 715 -137 195 6
329 28 475 77 396 134 615 419 616 800 0 223 -50 364 -179 502 -140 150 -355
244 -827 362 -399 100 -530 148 -593 220 -82 93 -55 290 51 370 93 71 223 102
383 93 133 -9 195 -23 275 -62 110 -56 179 -154 202 -291 l11 -64 295 0 294 0
-6 85 c-8 118 -31 205 -82 310 -55 113 -123 196 -217 267 -213 161 -458 229
-805 227 -93 -1 -179 -4 -193 -6z"/>
<path d="M29498 6894 c-159 -28 -346 -101 -455 -175 -114 -78 -215 -197 -274
-322 -44 -95 -59 -157 -66 -277 -11 -210 46 -375 177 -514 162 -170 323 -241
822 -365 368 -91 483 -137 569 -228 52 -54 71 -98 76 -173 12 -162 -93 -275
-305 -332 -113 -29 -347 -30 -453 0 -235 64 -363 204 -387 422 l-7 65 -294 3
-294 2 6 -107 c14 -269 129 -481 351 -645 136 -99 293 -167 487 -210 91 -20
133 -22 334 -23 203 0 243 3 345 24 427 88 687 297 782 627 30 105 33 343 5
444 -68 251 -250 414 -597 535 -58 20 -235 70 -395 110 -311 79 -398 106 -489
151 -127 62 -173 170 -131 310 30 100 128 176 272 210 82 19 274 13 368 -11
147 -39 248 -129 284 -253 11 -37 22 -84 26 -104 l6 -38 296 0 295 0 -6 78
c-9 100 -38 224 -70 295 -116 263 -402 449 -771 502 -126 18 -404 18 -507 -1z"/>
<path d="M15862 6129 c-89 -12 -221 -58 -282 -99 -59 -39 -154 -134 -188 -187
-15 -24 -30 -43 -34 -43 -5 0 -8 63 -8 140 l0 140 -260 0 -260 0 0 -1005 0
-1005 274 0 275 0 3 623 c4 600 5 625 25 699 49 172 118 250 262 294 62 19
204 18 270 -2 69 -20 141 -86 171 -157 46 -106 49 -161 50 -829 l0 -628 275 0
275 0 0 694 c0 431 -4 724 -11 773 -53 396 -257 581 -662 597 -56 3 -135 0
-175 -5z"/>
<path d="M17895 6129 c-126 -11 -206 -27 -305 -61 -262 -91 -420 -258 -465
-492 -25 -130 -56 -116 260 -116 l274 0 7 38 c30 168 127 250 316 268 82 8
217 -11 275 -38 51 -24 99 -79 113 -128 6 -19 10 -61 10 -93 0 -167 -85 -209
-520 -257 -500 -55 -720 -182 -790 -456 -24 -93 -26 -229 -5 -327 42 -201 196
-355 415 -417 146 -41 400 -36 570 11 118 32 266 114 324 178 11 12 22 21 26
21 4 0 12 -31 19 -69 6 -38 15 -81 21 -95 l10 -26 276 0 276 0 -7 23 c-52 160
-48 109 -55 867 -7 756 -6 746 -60 853 -90 180 -304 284 -650 316 -128 12
-201 12 -335 0z m475 -1424 c-34 -163 -143 -271 -308 -306 -64 -13 -236 -7
-294 11 -53 15 -118 68 -142 115 -30 58 -30 193 1 251 55 103 169 150 456 189
116 16 219 42 267 69 l25 14 3 -146 c1 -80 -2 -169 -8 -197z"/>
<path d="M20355 6125 c-184 -29 -317 -110 -437 -265 l-27 -35 -1 128 0 127
-265 0 -265 0 2 -1357 3 -1358 275 0 275 0 5 478 5 477 44 -55 c55 -72 123
-125 214 -170 100 -49 174 -66 307 -72 461 -21 803 276 897 779 23 127 23 397
-1 528 -20 112 -63 245 -107 332 -173 346 -533 526 -924 463z m157 -425 c195
-60 310 -236 338 -518 19 -188 -8 -372 -75 -509 -46 -92 -108 -156 -193 -196
-65 -31 -71 -32 -202 -32 -131 0 -137 1 -203 32 -120 57 -207 174 -252 338
-22 82 -31 328 -16 435 37 249 164 415 351 460 66 15 185 11 252 -10z"/>
<path d="M25045 6134 c-336 -35 -561 -139 -691 -320 -56 -79 -100 -196 -111
-294 l-6 -60 273 2 273 3 17 61 c34 126 102 197 213 225 29 8 99 14 157 14
226 -1 327 -72 338 -240 7 -114 -32 -172 -142 -209 -61 -21 -225 -49 -411 -71
-251 -29 -448 -85 -549 -154 -107 -74 -182 -181 -211 -302 -19 -83 -19 -257 0
-334 52 -204 207 -351 435 -412 83 -23 360 -25 465 -4 146 29 290 96 385 179
28 24 52 43 54 41 1 -2 7 -33 13 -69 6 -36 16 -77 22 -92 l11 -28 276 0 c259
0 276 1 269 18 -25 55 -47 173 -55 287 -5 72 -9 389 -10 705 0 484 -2 585 -15
635 -58 220 -254 357 -580 405 -77 11 -356 21 -420 14z m450 -1439 c-37 -160
-119 -245 -277 -286 -81 -21 -200 -25 -280 -8 -142 30 -208 109 -208 248 0
111 43 182 139 230 80 41 144 57 331 85 148 22 246 48 290 76 22 14 27 -253 5
-345z"/>
<path d="M27245 6129 c-350 -35 -596 -171 -704 -391 -39 -79 -70 -190 -71
-250 l0 -28 274 0 274 0 7 43 c16 102 81 193 162 229 69 30 197 43 294 30 190
-27 267 -108 257 -272 -8 -150 -96 -192 -499 -239 -396 -46 -567 -106 -697
-244 -91 -97 -132 -217 -132 -383 0 -247 103 -426 302 -523 114 -56 182 -72
330 -78 135 -6 238 5 366 38 117 31 267 113 326 178 11 12 22 21 26 21 3 0 11
-31 18 -69 6 -37 16 -80 21 -95 l11 -26 275 0 c151 0 275 2 275 4 0 3 -5 17
-11 33 -43 112 -42 109 -49 843 -6 616 -9 712 -23 763 -74 255 -293 385 -702
417 -145 11 -213 11 -330 -1z m480 -1434 c-44 -200 -190 -305 -422 -305 -144
0 -234 29 -291 94 -74 85 -69 259 11 345 28 30 116 74 190 95 31 9 122 26 202
37 142 19 244 45 295 73 l25 14 3 -141 c2 -101 -2 -162 -13 -212z"/>
<path d="M1004 4286 c-69 -31 -64 112 -64 -1661 0 -1464 1 -1603 16 -1624 36
-50 45 -51 597 -51 304 0 536 4 567 10 129 24 236 108 293 227 31 66 32 73 35
222 l4 153 301 -5 c261 -5 321 -9 442 -30 77 -14 514 -111 970 -215 1152 -264
1486 -339 1595 -357 252 -40 510 -1 739 114 44 23 281 157 528 299 246 143
968 558 1603 924 635 366 1236 712 1334 769 226 131 281 184 326 313 37 108
22 252 -37 353 -13 23 -54 70 -91 105 -189 178 -501 229 -734 119 -35 -17
-373 -203 -753 -414 l-690 -384 -18 74 c-29 124 -70 198 -161 289 -58 58 -100
90 -147 112 -134 64 -100 62 -1022 62 -796 0 -844 1 -935 20 -197 40 -345 119
-508 271 -118 109 -284 198 -463 247 l-96 26 -515 4 c-564 4 -629 -1 -774 -49
-162 -54 -274 -124 -476 -297 -107 -93 -217 -153 -330 -182 -41 -11 -78 -20
-81 -20 -4 0 -8 64 -11 143 -3 135 -5 145 -35 210 -56 117 -166 203 -292 227
-32 6 -261 10 -570 10 -412 -1 -522 -4 -547 -14z m1126 -233 c42 -22 60 -38
77 -72 l23 -45 -2 -1321 -3 -1321 -27 -41 c-52 -79 -43 -78 -570 -81 l-468 -3
0 1456 0 1455 458 0 458 0 54 -27z m2575 -46 c118 -37 226 -94 310 -165 215
-181 285 -227 430 -285 116 -46 190 -65 306 -77 54 -5 439 -10 895 -10 702 0
807 -2 854 -16 213 -63 318 -296 222 -496 -46 -97 -110 -155 -207 -188 -57
-19 -84 -20 -992 -20 -1033 0 -988 3 -1019 -63 -23 -48 -12 -98 27 -131 l31
-26 957 0 c1061 0 1010 -3 1149 67 87 43 164 115 225 209 l45 69 781 434 c430
238 804 442 831 452 149 56 335 23 454 -82 68 -60 89 -107 84 -185 -8 -123 81
-64 -1258 -834 -657 -378 -1463 -842 -1790 -1030 -327 -189 -631 -360 -675
-381 -44 -20 -118 -47 -165 -59 -107 -27 -308 -38 -406 -21 -74 13 -214 44
-1584 356 -492 112 -920 208 -950 214 -140 27 -337 41 -567 41 l-243 0 0 850
0 850 28 6 c227 49 367 117 536 261 204 173 314 238 467 273 78 18 121 19 609
17 l525 -3 90 -27z"/>
</g>
</svg>
